<?xml version="1.0" encoding="UTF-8" standalone="no"?>
<svg
   xmlns:dc="http://purl.org/dc/elements/1.1/"
   xmlns:cc="http://creativecommons.org/ns#"
   xmlns:rdf="http://www.w3.org/1999/02/22-rdf-syntax-ns#"
   xmlns:svg="http://www.w3.org/2000/svg"
   xmlns="http://www.w3.org/2000/svg"
   xmlns:sodipodi="http://sodipodi.sourceforge.net/DTD/sodipodi-0.dtd"
   xmlns:inkscape="http://www.inkscape.org/namespaces/inkscape"
   t="1611831514470"
   class="icon"
   viewBox="0 0 1024 1024"
   version="1.1"
   p-id="13951"
   width="128"
   height="128"
   id="svg42"
   sodipodi:docname="administrator.svg"
   inkscape:version="1.0.2 (e86c870879, 2021-01-15, custom)">
  <metadata
     id="metadata46">
    <rdf:RDF>
      <cc:Work
         rdf:about="">
        <dc:format>image/svg+xml</dc:format>
        <dc:type
           rdf:resource="http://purl.org/dc/dcmitype/StillImage" />
        <dc:title></dc:title>
      </cc:Work>
    </rdf:RDF>
  </metadata>
  <sodipodi:namedview
     pagecolor="#ffffff"
     bordercolor="#666666"
     borderopacity="1"
     objecttolerance="10"
     gridtolerance="10"
     guidetolerance="10"
     inkscape:pageopacity="0"
     inkscape:pageshadow="2"
     inkscape:window-width="2560"
     inkscape:window-height="1377"
     id="namedview44"
     showgrid="false"
     inkscape:zoom="9.265625"
     inkscape:cx="44.141653"
     inkscape:cy="64"
     inkscape:window-x="1432"
     inkscape:window-y="-8"
     inkscape:window-maximized="1"
     inkscape:current-layer="svg42" />
  <defs
     id="defs38">
    <style
       type="text/css"
       id="style36" />
  </defs>
  <path
     d="m 934.16748,797.32966 c 5.89464,39.29348 40.08953,33.51502 45.98419,50.85039 0,10.97328 -5.89466,50.8504 -22.98915,56.051 -17.0945,0 -40.08365,-5.77846 -57.17814,0 -11.19394,5.77846 -22.98325,10.97906 -28.8779,22.53598 -11.19985,28.30863 11.19394,50.84462 0,61.82367 -17.0945,10.97906 -51.87884,28.3144 -63.07279,16.7575 -17.09449,-16.7575 -17.09449,-39.29924 -51.87294,-39.29924 -45.98419,0 -45.98419,45.07774 -68.96745,45.07774 -22.98914,0 -63.07278,-16.75754 -63.07278,-33.52084 5.89465,-22.5302 17.09448,-39.2877 -5.89466,-61.82368 -28.88379,-22.53596 -63.07278,0 -74.86208,-10.97907 -17.08861,-10.97905 -22.98326,-39.29347 -17.08861,-56.04522 5.89465,-16.75751 45.97829,-16.75751 45.97829,-61.83523 0,-33.50926 -40.08364,-39.28771 -45.97829,-61.82368 -5.89465,-16.75752 5.89465,-45.07772 22.98325,-50.85617 28.8838,-10.97328 45.9783,10.97906 74.8621,-10.97328 17.09448,-16.75175 11.19983,-56.051 11.19983,-67.60792 5.89465,-16.75751 28.8779,-22.53597 45.9783,-22.53597 34.18899,0 22.98325,39.29926 68.96744,45.07772 45.97829,0 40.08365,-16.75752 63.0669,-45.07772 28.88379,0 51.87883,10.97906 57.17813,22.53597 11.19984,22.53597 -11.19395,56.051 22.98914,78.58697 28.87791,16.75753 57.17814,-5.77845 74.8621,0 11.19394,5.77846 17.0886,22.53598 22.98325,45.07773 -11.19394,32.92563 -63.07279,27.14717 -57.17813,78.00335 z M 727.27106,684.6498 C 589.33618,718.16484 641.20912,915.21011 773.24934,893.25199 905.87903,864.93179 888.19508,656.33538 727.27106,684.6498 Z M 492.0744,487.61031 c -137.93488,0 -246.98597,-106.90141 -246.98597,-242.11723 0,-135.21583 109.05109,-242.1172214 246.98597,-242.1172214 137.92898,0 246.98006,106.9013914 246.98006,242.1172214 0.005,129.43737 -109.04518,242.11723 -246.98006,242.11723 z m 201.00767,56.04521 c 0,0 -91.96248,0 -86.06784,61.82946 5.89466,67.60791 -86.06193,16.75174 -103.15054,73.38637 -22.98914,67.60213 11.19396,56.04523 28.87791,101.12295 11.19985,28.31442 -45.97829,45.07194 -40.08364,95.92233 11.19984,67.6079 68.96745,33.52081 86.06194,73.38637 11.19983,33.51502 -28.8779,56.051 -120.84038,56.051 -74.85621,0 -218.10217,0 -269.97512,-5.77846 0,0 -149.134719,-5.77845 -149.134719,-101.12295 0,0 -5.894653,-140.99428 86.061929,-242.11721 0,0 97.85125,-123.65892 264.08636,-123.65892 z"
     p-id="13952"
     id="path40"
     style="stroke-width:1.1399" />
</svg>
