<?xml version="1.0" standalone="no"?><!DOCTYPE svg PUBLIC "-//W3C//DTD SVG 1.1//EN" "http://www.w3.org/Graphics/SVG/1.1/DTD/svg11.dtd"><svg t="1629269880820" class="icon" viewBox="0 0 1024 1024" version="1.1" xmlns="http://www.w3.org/2000/svg" p-id="2094" xmlns:xlink="http://www.w3.org/1999/xlink" width="512" height="512"><defs><style type="text/css"></style></defs><path d="M887.569067 843.4688h-54.272l-105.949867-148.241067a111.8208 111.8208 0 0 0 75.093333-105.301333A112.162133 112.162133 0 0 0 690.3808 477.866667a112.162133 112.162133 0 0 0-112.059733 112.059733c0 48.810667 31.5392 89.941333 75.093333 105.301333l-105.949867 148.241067h-54.272c-27.272533 0-49.4592 22.186667-49.4592 49.493333v79.701334c0 27.272533 22.186667 49.493333 49.493334 49.493333h394.308266c27.306667 0 49.493333-22.186667 49.493334-49.493333V892.928a49.493333 49.493333 0 0 0-49.4592-49.493333zM689.493333 529.066667c32.017067 0 58.026667 26.043733 58.026667 58.026666 0 31.8464-25.736533 57.685333-57.480533 58.026667h-1.092267a58.0608 58.0608 0 0 1-57.480533-58.026667c0-31.9488 26.0096-58.026667 58.026666-58.026666z m-2.389333 222.549333l10.786133-0.682667 73.181867 102.4H614.4l72.704-101.717333z m200.465067 221.184H493.226667c-3.822933 0-7.0656-2.3552-7.0656-5.12v-58.026667c0-2.7648 3.242667-5.12 7.0656-5.12h394.376533c3.857067 0 7.0656 2.3552 7.0656 5.12v58.026667c0 2.7648-3.242667 5.12-7.099733 5.12z"  p-id="2095"></path><path d="M341.333333 887.466667H136.533333c-18.807467 0-34.133333-15.291733-34.133333-34.133334V273.066667h682.666667v102.4a34.133333 34.133333 0 0 0 68.266666 0V102.4c0-56.490667-45.943467-102.4-102.4-102.4H136.533333C80.042667 0 34.133333 45.909333 34.133333 102.4v750.933333c0 56.456533 45.909333 102.4 102.4 102.4h204.8a34.133333 34.133333 0 0 0 0-68.266666zM136.533333 68.266667h614.4c18.8416 0 34.133333 15.325867 34.133334 34.133333v102.4H102.4V102.4c0-18.807467 15.325867-34.133333 34.133333-34.133333z"  p-id="2096"></path><path d="M204.8 409.6a34.133333 34.133333 0 0 0 0 68.266667h273.066667a34.133333 34.133333 0 0 0 0-68.266667H204.8z m136.533333 204.8H204.8a34.133333 34.133333 0 0 0 0 68.266667h136.533333a34.133333 34.133333 0 0 0 0-68.266667z" p-id="2097"></path></svg>