<?xml version="1.0" standalone="no"?><!DOCTYPE svg PUBLIC "-//W3C//DTD SVG 1.1//EN" "http://www.w3.org/Graphics/SVG/1.1/DTD/svg11.dtd"><svg t="1627456925779" class="icon" viewBox="0 0 1024 1024" version="1.1" xmlns="http://www.w3.org/2000/svg" p-id="2003" xmlns:xlink="http://www.w3.org/1999/xlink" width="512" height="512"><defs><style type="text/css">@font-face { font-family: feedback-iconfont; src: url("//at.alicdn.com/t/font_1031158_1uhr8ri0pk5.eot?#iefix") format("embedded-opentype"), url("//at.alicdn.com/t/font_1031158_1uhr8ri0pk5.woff2") format("woff2"), url("//at.alicdn.com/t/font_1031158_1uhr8ri0pk5.woff") format("woff"), url("//at.alicdn.com/t/font_1031158_1uhr8ri0pk5.ttf") format("truetype"), url("//at.alicdn.com/t/font_1031158_1uhr8ri0pk5.svg#iconfont") format("svg"); }
</style></defs><path d="M710.912 665.6H793.6a128 128 0 0 1 128 128V870.4a51.2 51.2 0 0 1-51.2 51.2H153.6a51.2 51.2 0 0 1-51.2-51.2v-76.8A128 128 0 0 1 230.4 665.6h82.688a283.7504 283.7504 0 0 0 51.5584-148.992A255.6928 255.6928 0 0 1 256 307.2a51.2 51.2 0 1 1 102.4 0c0 50.688 24.576 96.9728 65.28 125.696l46.08 32.512-2.816 56.32a385.024 385.024 0 0 1-35.84 143.872h161.792a385.024 385.024 0 0 1-35.84-143.872l-2.816-56.32 46.08-32.512a153.6 153.6 0 1 0-184.32-245.5552l-0.3072-0.3072a51.2 51.2 0 1 1-73.7792-70.9632l-0.1024-0.1024a256 256 0 1 1 317.5424 400.5888A283.7504 283.7504 0 0 0 710.912 665.6z m82.688 102.4h-563.2a25.6 25.6 0 0 0-25.6 25.6v25.6h614.4v-25.6a25.6 25.6 0 0 0-25.6-25.6z" p-id="2004"></path></svg>