<?xml version="1.0" standalone="no"?><!DOCTYPE svg PUBLIC "-//W3C//DTD SVG 1.1//EN" "http://www.w3.org/Graphics/SVG/1.1/DTD/svg11.dtd"><svg t="1625465480700" class="icon" viewBox="0 0 1072 1024" version="1.1" xmlns="http://www.w3.org/2000/svg" p-id="13548" xmlns:xlink="http://www.w3.org/1999/xlink" width="33.5" height="32"><defs><style type="text/css"></style></defs><path d="M388.047238 526.726095c0 47.201524-38.473143 76.751238-69.241905 53.150476L23.600762 335.481905c-30.72-23.600762-30.72-82.651429 0-106.300953l295.204571-219.428571c30.72-23.600762 69.241905 5.851429 69.241905 53.150476v181.394286l306.663619 0.048762c101.278476 0 196.754286 32.280381 268.824381 104.350476C1035.556571 420.815238 1072.761905 519.996952 1072.761905 621.226667c0 101.278476-37.156571 193.048381-109.226667 265.118476C891.465143 958.464 795.989333 975.238095 694.710857 975.238095l-308.809143 0.341334c-25.258667 0-45.738667-17.798095-45.738666-43.105524 0-25.258667 20.48-54.418286 45.738666-54.418286L694.710857 877.714286c159.353905 0 283.355429-97.084952 283.355429-256.487619 0-159.353905-124.001524-280.478476-283.355429-280.478477h-306.712381l0.048762 185.977905z" p-id="13549" fill="#00c090"></path></svg>