<?xml version="1.0" standalone="no"?><!DOCTYPE svg PUBLIC "-//W3C//DTD SVG 1.1//EN" "http://www.w3.org/Graphics/SVG/1.1/DTD/svg11.dtd"><svg t="1619493850328" class="icon" viewBox="0 0 1024 1024" version="1.1" xmlns="http://www.w3.org/2000/svg" p-id="2645" xmlns:xlink="http://www.w3.org/1999/xlink" width="128" height="128"><defs><style type="text/css"></style></defs><path d="M534.4 377.6l120 0c8 0 14.4-6.4 14.4-14.4 0-8-6.4-14.4-14.4-14.4l-120 0c-8 0-14.4 6.4-14.4 14.4C520 371.2 526.4 377.6 534.4 377.6z" p-id="2646"></path><path d="M534.4 468.8l120 0c8 0 14.4-6.4 14.4-14.4 0-8-6.4-14.4-14.4-14.4l-120 0c-8 0-14.4 6.4-14.4 14.4C520 462.4 526.4 468.8 534.4 468.8z" p-id="2647"></path><path d="M864 708.8 552 708.8c-25.6 0-32 6.4-32 14.4 0 8 6.4 14.4 32 14.4L864 737.6c25.6 0 32-6.4 32-14.4C896 715.2 889.6 708.8 864 708.8z" p-id="2648"></path><path d="M408 540.8c20.8-27.2 32-60.8 32-99.2 0-86.4-62.4-155.2-140.8-155.2S160 356.8 160 443.2c0 36.8 12.8 72 32 99.2-36.8 12.8-64 46.4-64 88l0 62.4c0 51.2 41.6 92.8 94.4 92.8l156.8 0c51.2 0 94.4-41.6 94.4-92.8l0-62.4C472 588.8 444.8 553.6 408 540.8zM190.4 443.2c0-68.8 49.6-124.8 108.8-124.8 60.8 0 108.8 56 108.8 124.8s-49.6 124.8-108.8 124.8C240 566.4 190.4 512 190.4 443.2zM441.6 683.2c0 38.4-33.6 70.4-76.8 70.4l-128 0c-43.2 0-76.8-32-76.8-70.4l0-46.4c0-33.6 25.6-60.8 59.2-67.2 22.4 17.6 51.2 28.8 81.6 28.8s59.2-11.2 81.6-28.8c33.6 8 59.2 35.2 59.2 67.2L441.6 683.2z" p-id="2649"></path><path d="M864 619.2 552 619.2c-25.6 0-32 6.4-32 14.4 0 8 6.4 14.4 32 14.4L864 648c25.6 0 32-6.4 32-14.4C896 625.6 889.6 619.2 864 619.2z" p-id="2650"></path><path d="M520 544c0 8 8 14.4 19.2 14.4l156.8 0c11.2 0 19.2-6.4 19.2-14.4S705.6 528 696 528l-156.8 0C528 528 520 536 520 544z" p-id="2651"></path><path d="M928 224 96 224c-35.2 0-64 28.8-64 64l0 496c0 35.2 28.8 64 64 64l832 0c35.2 0 64-28.8 64-64L992 288C992 252.8 963.2 224 928 224zM960 776c0 22.4-17.6 40-40 40l-816 0C81.6 816 64 798.4 64 776l0-480C64 273.6 81.6 256 104 256l816 0c22.4 0 40 17.6 40 40L960 776z" p-id="2652"></path></svg>