<?xml version="1.0" standalone="no"?><!DOCTYPE svg PUBLIC "-//W3C//DTD SVG 1.1//EN" "http://www.w3.org/Graphics/SVG/1.1/DTD/svg11.dtd"><svg t="1611830716994" class="icon" viewBox="0 0 1024 1024" version="1.1" xmlns="http://www.w3.org/2000/svg" p-id="9863" xmlns:xlink="http://www.w3.org/1999/xlink" width="128" height="128"><defs><style type="text/css"></style></defs><path d="M795.178667 206.954667c60.544 61.610667 90.794667 138.368 90.794666 231.296 0 77.845333-24.874667 147.029333-72.426666 209.706666-47.573333 59.434667-99.456 89.706667-155.648 89.706667-45.418667 0-70.272-23.786667-74.581334-71.36-36.757333 48.64-82.154667 73.514667-136.192 73.514667-45.397333 0-82.154667-16.213333-110.250666-46.485334-28.096-30.250667-42.154667-69.184-42.154667-115.648 0-80 23.786667-150.250667 73.493333-208.64 47.573333-58.368 102.698667-86.464 167.530667-86.464 51.882667 0 86.464 27.029333 103.765333 81.066667l16.213334-60.544h70.250666l-76.736 282.133333c-8.64 31.338667-12.970667 52.949333-12.970666 65.92 0 17.301333 9.728 27.029333 30.272 27.029334 33.514667 0 67.029333-21.610667 100.522666-63.765334 38.912-49.728 58.368-108.096 58.368-175.104 0-76.757333-25.941333-140.544-77.824-191.338666-56.213333-55.125333-131.882667-82.154667-224.832-82.154667-99.456 0-181.589333 32.426667-246.464 98.368-63.765333 64.874667-95.125333 148.096-95.125333 247.530667 0 109.184 31.338667 193.493333 96.213333 252.949333 60.522667 56.213333 143.765333 85.376 249.685334 85.376 75.669333 0 142.677333-14.058667 198.890666-41.066667 49.728-24.874667 89.706667-58.368 119.978667-101.610666h75.669333c-37.824 64.874667-91.882667 114.581333-163.221333 149.184-69.184 33.514667-145.941333 50.794667-231.317333 50.794666-129.706667 0-231.317333-35.669333-305.898667-107.008-76.736-73.514667-114.581333-169.706667-114.581333-290.773333 0-113.514667 37.824-207.530667 114.581333-283.2 79.978667-81.066667 181.589333-121.066667 305.898667-121.066667 112.448 0.021333 202.154667 33.536 268.096 101.653334zM425.514667 417.706667c-36.736 45.418667-55.125333 99.456-55.125334 163.221333 0 29.184 6.485333 51.882667 20.544 69.184s34.581333 25.941333 61.610667 25.941333 54.058667-10.816 79.978667-32.426666c25.941333-21.610667 43.242667-47.573333 51.882666-75.669334l23.786667-88.64c6.485333-28.096 10.816-45.376 10.816-51.882666 0-19.456-6.485333-36.736-18.368-50.816-14.058667-17.28-31.338667-25.92-52.970667-25.92-46.506667 0.021333-87.573333 21.632-122.154666 67.008z" p-id="9864"></path></svg>