<?xml version="1.0" standalone="no"?><!DOCTYPE svg PUBLIC "-//W3C//DTD SVG 1.1//EN" "http://www.w3.org/Graphics/SVG/1.1/DTD/svg11.dtd"><svg t="1623823930652" class="icon" viewBox="0 0 1024 1024" version="1.1" xmlns="http://www.w3.org/2000/svg" p-id="4303" xmlns:xlink="http://www.w3.org/1999/xlink" width="512" height="512"><defs><style type="text/css"></style></defs><path d="M245.5 329.5c-20.1 0-36.4 16.3-36.4 36.4s16.3 36.4 36.4 36.4h350.9c20.1 0 36.4-16.3 36.4-36.4s-16.3-36.4-36.4-36.4H245.5z m259.3 145.6H245.5c-20.1 0-36.4 16.3-36.4 36.4 0 20.1 16.3 36.4 36.4 36.4h259.3c20.1 0 36.4-16.3 36.4-36.4 0-20.1-16.3-36.4-36.4-36.4z m-91.6 145.6H245.5c-20.1 0-36.4 16.3-36.4 36.4s16.3 36.4 36.4 36.4h167.7c20.1 0 36.4-16.3 36.4-36.4s-16.3-36.4-36.4-36.4z" p-id="4304"></path><path d="M356.6 844.8H152c-7.9 0-14.4-6.5-14.4-14.6V193.8c0-8 6.5-14.5 14.4-14.5h538c7.9 0 14.4 6.5 14.4 14.5v131.4c0 23 18.6 41.6 41.6 41.6s41.6-18.6 41.6-41.6V193.8c0-53.9-43.8-97.8-97.6-97.8H152c-53.8 0-97.6 43.9-97.6 97.8v636.5c0 53.9 43.8 97.8 97.6 97.8h204.6c23 0 41.6-18.6 41.6-41.6s-18.7-41.7-41.6-41.7z" p-id="4305"></path><path d="M939 759l-96.5-55.7 96.5-55.7c19.9-11.5 26.7-36.9 15.2-56.8s-36.9-26.7-56.8-15.2l-96.5 55.7V519.8c0-23-18.6-41.6-41.6-41.6s-41.6 18.6-41.6 41.6v111.4l-96.5-55.7c-19.9-11.5-45.3-4.7-56.8 15.2s-4.7 45.3 15.2 56.8l96.5 55.7-96.5 55.8c-19.9 11.5-26.7 36.9-15.2 56.8 7.7 13.3 21.7 20.8 36.1 20.8 7.1 0 14.2-1.8 20.8-5.6l96.5-55.7v111.4c0 23 18.6 41.6 41.6 41.6s41.6-18.6 41.6-41.6V775.3l96.5 55.7c6.6 3.8 13.7 5.6 20.8 5.6 14.4 0 28.4-7.5 36.1-20.8 11.3-19.9 4.5-45.3-15.4-56.8z" p-id="4306"></path></svg>