<?xml version="1.0" standalone="no"?><!DOCTYPE svg PUBLIC "-//W3C//DTD SVG 1.1//EN" "http://www.w3.org/Graphics/SVG/1.1/DTD/svg11.dtd"><svg t="1623824000841" class="icon" viewBox="0 0 1024 1024" version="1.1" xmlns="http://www.w3.org/2000/svg" p-id="7128" xmlns:xlink="http://www.w3.org/1999/xlink" width="512" height="512"><defs><style type="text/css"></style></defs><path d="M794.624 62.805c45.243 0 81.92 36.677 81.92 81.92V854.7c0 45.243-36.677 81.92-81.92 81.92h-529.75c-45.243 0-81.92-36.677-81.92-81.92V144.725c0-45.243 36.677-81.92 81.92-81.92h529.75z m0 81.92h-529.75V854.7h529.75V144.725zM520.192 404.14c100.289 0 181.59 81.911 181.59 182.954 0 39.282-12.288 75.671-33.201 105.481l25.704 25.705c15.996 15.996 15.996 41.93 0 57.926-15.996 15.996-41.93 15.996-57.926 0l-28.727-28.726c-25.938 14.385-55.74 22.569-87.44 22.569-100.289 0-181.59-81.912-181.59-182.955s81.301-182.954 181.59-182.954z m0 81.92c-54.908 0-99.67 45.098-99.67 101.034 0 55.937 44.762 101.035 99.67 101.035s99.67-45.098 99.67-101.035c0-55.936-44.762-101.034-99.67-101.034z m146.09-243.03c22.622 0 40.96 18.339 40.96 40.96 0 22.622-18.338 40.96-40.96 40.96h-286.72c-22.62 0-40.96-18.338-40.96-40.96 0-22.621 18.34-40.96 40.96-40.96h286.72z" p-id="7129"></path></svg>