<?xml version="1.0" standalone="no"?><!DOCTYPE svg PUBLIC "-//W3C//DTD SVG 1.1//EN" "http://www.w3.org/Graphics/SVG/1.1/DTD/svg11.dtd"><svg t="1607395916012" class="icon" viewBox="0 0 1024 1024" version="1.1" xmlns="http://www.w3.org/2000/svg" p-id="12972" xmlns:xlink="http://www.w3.org/1999/xlink" width="128" height="128"><defs><style type="text/css"></style></defs><path d="M977.164887 268.176952C971.733185 273.644155 965.66246 278.010817 959.662737 282.448481L740.442102 63.58286C744.915268 57.583137 749.28193 51.547913 754.713632 46.116211 816.130911-15.230065 915.747608-15.230065 977.164887 46.116211 1038.582166 107.426987 1038.582166 206.866177 977.164887 268.176952ZM961.047289 530.8512C961.047289 632.313965 926.895021 725.611427 870.021911 800.767716L984.726668 910.182776C1011.778671 935.992234 1011.778671 977.848287 984.726668 1003.657745 957.639162 1029.502704 913.795035 1029.502704 886.743031 1003.657745L773.103314 895.272223C699.402579 948.098183 609.264734 979.552351 511.60061 979.552351 413.687977 979.552351 323.372625 947.920677 249.565386 894.881709L135.535155 1003.657745C108.483151 1029.502704 64.603522 1029.502704 37.551519 1003.657745 10.499515 977.848287 10.499515 935.992234 37.551519 910.182776L152.824296 800.235196C96.164194 725.14991 62.189433 632.065456 62.189433 530.8512 62.189433 283.052004 263.4109 82.150049 511.60061 82.150049 759.825822 82.150049 961.047289 283.052004 961.047289 530.8512ZM555.409236 217.445569 467.756483 217.445569 467.756483 554.85009 459.875191 584.20968 720.348357 653.898766 743.60172 567.204549 555.409236 516.86368 555.409236 217.445569ZM46.533352 268.176952C-14.883927 206.866177-14.883927 107.426987 46.533352 46.116211 107.950631-15.230065 207.567328-15.230065 268.984607 46.116211 274.416308 51.547913 278.78297 57.583137 283.291638 63.58286L64.035501 282.448481C58.035779 278.010817 52.000555 273.644155 46.533352 268.176952Z" p-id="12973"></path></svg>