<?xml version="1.0" standalone="no"?><!DOCTYPE svg PUBLIC "-//W3C//DTD SVG 1.1//EN" "http://www.w3.org/Graphics/SVG/1.1/DTD/svg11.dtd"><svg t="1614842269123" class="icon" viewBox="0 0 1280 1024" version="1.1" xmlns="http://www.w3.org/2000/svg" p-id="5844" xmlns:xlink="http://www.w3.org/1999/xlink" width="160" height="128"><defs><style type="text/css"></style></defs><path d="M1220.473122 319.99233l-1160.936971 0c-58.922989 0-61.875275 28.684218-58.677533 63.736647l52.827507 576.520741c3.197741 35.052428 11.502324 63.736647 70.350312 63.736647l1031.936399 0c60.000266 0 67.125298-28.684218 70.323039-63.736647l52.820689-576.520741C1282.321124 348.683366 1279.396111 319.99233 1220.473122 319.99233zM1177.872933 179.19625c-7.097759-28.159216-41.925186-51.197955-77.400344-51.197955L664.352472 127.998295c-35.475157 0-85.050378-20.32509-110.175489-45.163837l-38.127442-37.670622c-25.125112-24.838747-74.700332-45.163837-110.175489-45.163837L197.50949 0c-35.475157 0-67.698028 28.622854-71.598045 63.613919L107.20909 230.394205l1083.563901 0L1177.872933 179.19625z" p-id="5845"></path></svg>