<?xml version="1.0" standalone="no"?><!DOCTYPE svg PUBLIC "-//W3C//DTD SVG 1.1//EN" "http://www.w3.org/Graphics/SVG/1.1/DTD/svg11.dtd"><svg t="1620896269914" class="icon" viewBox="0 0 1024 1024" version="1.1" xmlns="http://www.w3.org/2000/svg" p-id="1883" xmlns:xlink="http://www.w3.org/1999/xlink" width="512" height="512"><defs><style type="text/css"></style></defs><path d="M494 823.3L0.1 506.5 1023.3 65.4l-139.9 394L823 438l90.9-255.8-778 335.5 392.7 251.8z" fill="#005BAC" p-id="1884"></path><path d="M359.6 960.1l-74.5-286.7 612.3-531.5 42 48.4-582.3 505.5 64.5 248.3z" fill="#005BAC" p-id="1885"></path><path d="M800.7 958.3c-122.7 0-222.5-99.8-222.5-222.5S678 513.3 800.7 513.3c17.8 0 35.4 2.1 52.4 6.2L838 581.7c-12-2.9-24.5-4.4-37.2-4.4-87.4 0-158.5 71.1-158.5 158.5s71.1 158.5 158.5 158.5 158.5-71.1 158.5-158.5h64c-0.1 122.7-99.9 222.5-222.6 222.5z" fill="#005BAC" p-id="1886"></path><path d="M767.3 624.7l191.3 4.6L867 461.2z" fill="#005BAC" p-id="1887"></path></svg>