<?xml version="1.0" standalone="no"?><!DOCTYPE svg PUBLIC "-//W3C//DTD SVG 1.1//EN" "http://www.w3.org/Graphics/SVG/1.1/DTD/svg11.dtd"><svg t="1623824133205" class="icon" viewBox="0 0 1024 1024" version="1.1" xmlns="http://www.w3.org/2000/svg" p-id="7971" xmlns:xlink="http://www.w3.org/1999/xlink" width="512" height="512"><defs><style type="text/css"></style></defs><path d="M983.742852 63.366093A101.307033 101.307033 0 0 0 889.835089 0.629725H149.671893A101.54318 101.54318 0 0 0 55.685414 63.366093 101.307033 101.307033 0 0 0 77.489647 174.197719l335.800936 323.914874v322.261844c0 11.492484 4.408076 22.512674 12.437072 30.699101l153.967798 159.399179a44.08076 44.08076 0 0 0 48.488837 10.233033 44.316907 44.316907 0 0 0 27.707906-41.01085V495.908555l305.652844-321.63212a101.54318 101.54318 0 0 0 22.119096-110.989058z m-84.698033 48.25269L580.403894 446.317699a44.08076 44.08076 0 0 0-12.909365 31.407542V873.743644l-65.4127-71.316373v-322.734139a44.316907 44.316907 0 0 0-12.909366-31.250111L140.304731 111.618783a12.27964 12.27964 0 0 1-2.833763-14.247532 12.358356 12.358356 0 0 1 12.200925-8.107711h740.084481c7.320555 0 10.626612 4.408076 12.200924 8.107711a12.358356 12.358356 0 0 1-2.912479 14.247532z" fill="#2c2c2c" p-id="7972"></path></svg>