<?xml version="1.0" standalone="no"?><!DOCTYPE svg PUBLIC "-//W3C//DTD SVG 1.1//EN" "http://www.w3.org/Graphics/SVG/1.1/DTD/svg11.dtd"><svg t="1614744451738" class="icon" viewBox="0 0 1024 1024" version="1.1" xmlns="http://www.w3.org/2000/svg" p-id="2110" xmlns:xlink="http://www.w3.org/1999/xlink" width="128" height="128"><defs><style type="text/css"></style></defs><path d="M765.354667 85.333333c51.456 0 93.866667 40.106667 96.938666 91.477334l0.170667 5.632v48.64h32.426667c51.370667 0 93.866667 40.106667 96.938666 91.392l0.170667 5.717333v291.413333c0 51.456-40.106667 93.952-91.477333 97.024l-5.632 0.170667h-32.426667v194.218667c0 53.76-43.52 97.194667-97.109333 97.194666H311.978667c-53.589333 0-97.109333-43.52-97.109334-97.194666V716.8h-32.426666c-51.370667 0-93.866667-40.106667-96.938667-91.477333L85.333333 619.605333V328.192c0-51.456 40.106667-93.952 91.477334-97.024l5.632-0.085333h32.426666v-48.64c0-51.370667 40.106667-93.866667 91.477334-96.938667L311.978667 85.333333H765.44z m0 501.930667H311.978667a32.426667 32.426667 0 0 0-32.426667 32.426667v291.328c0 17.92 14.506667 32.426667 32.426667 32.426666H765.44c17.92 0 32.426667-14.506667 32.426667-32.426666V619.605333a32.426667 32.426667 0 0 0-32.426667-32.426666z m129.536-291.413333H182.442667a32.426667 32.426667 0 0 0-32.085334 28.586666l-0.256 3.754667v291.413333a32.426667 32.426667 0 0 0 28.586667 32.170667l3.754667 0.256h32.426666v-32.426667c0-53.674667 43.52-97.109333 97.109334-97.109333H765.44c53.589333 0 97.109333 43.52 97.109333 97.109333v32.426667h32.426667a32.426667 32.426667 0 0 0 32.085333-28.586667l0.256-3.84V328.192a32.426667 32.426667 0 0 0-28.586666-32.170667l-3.754667-0.170666z m-631.466667 64.682666a48.64 48.64 0 1 1 0 97.194667 48.64 48.64 0 0 1 0-97.194667zM765.44 150.186667H311.978667a32.426667 32.426667 0 0 0-32.170667 28.586666l-0.170667 3.754667v48.64h518.058667v-48.64a32.426667 32.426667 0 0 0-28.586667-32.085333l-3.754666-0.256z" p-id="2111"></path></svg>