<?xml version="1.0" standalone="no"?><!DOCTYPE svg PUBLIC "-//W3C//DTD SVG 1.1//EN" "http://www.w3.org/Graphics/SVG/1.1/DTD/svg11.dtd"><svg t="1614744469276" class="icon" viewBox="0 0 1024 1024" version="1.1" xmlns="http://www.w3.org/2000/svg" p-id="2905" xmlns:xlink="http://www.w3.org/1999/xlink" width="128" height="128"><defs><style type="text/css"></style></defs><path d="M749.54 272.285c0 0 96.599-0.96 96.599 94.681 0 0 8.94 92.58-96.599 94.62 0 0-94.56 2.041-93.6-94.62 0-0.06-1.02-85.74 93.6-94.681zM939.801 126.845c0 0 50.82 3.959 50.82 48.78l0 668.281c0 0-3.001 47.82-50.82 48.841l0-765.9zM33.38 843.965c0 0 2.041 48.841 48.841 48.841l857.58 0 0-141.42-93.479 0-190.38-193.26-143.46 144.361-195.18-240.96-192.24 287.879-42.78 0.96-1.079-574.681-47.82 0 0 668.281zM939.801 126.845l-857.58 0c0 0-48.839-1.02-48.839 48.78l906.42 0 0-48.78z" p-id="2906"></path></svg>