<?xml version="1.0" standalone="no"?><!DOCTYPE svg PUBLIC "-//W3C//DTD SVG 1.1//EN" "http://www.w3.org/Graphics/SVG/1.1/DTD/svg11.dtd"><svg t="1620971794966" class="icon" viewBox="0 0 1024 1024" version="1.1" xmlns="http://www.w3.org/2000/svg" p-id="1905" xmlns:xlink="http://www.w3.org/1999/xlink" width="512" height="512"><defs><style type="text/css"></style></defs><path d="M955.389 647.432l-5.833-5.833c-23.433-23.433-61.602-23.433-85.137 0L641.65 864.47c-23.433 23.433-23.433 61.602 0 85.137l5.833 5.833c23.433 23.433 61.601 23.433 85.137 0l222.871-222.871c23.331-23.433 23.331-61.704-0.102-85.137z" p-id="1906" fill="#d81e06"></path><path d="M647.483 641.599l-5.833 5.833c-23.433 23.433-23.433 61.601 0 85.137L864.521 955.44c23.433 23.433 61.602 23.433 85.137 0l5.833-5.833c23.433-23.433 23.433-61.601 0-85.137L732.518 641.6c-23.434-23.433-61.602-23.433-85.035 0z m-109.9-408.904c-17.5 0.409-31.416 14.94-31.006 32.438l0.204 230.955-152.878 1.126c-17.498 0.409-31.415 14.94-31.006 32.438 0.41 17.498 14.94 31.414 32.438 31.005l184.6-1.842 3.07-0.102c17.499-0.41 31.415-14.94 31.006-32.438a31.83 31.83 0 0 0-3.377-13.61L570.02 263.7c-0.41-17.498-14.94-31.415-32.438-31.005z" p-id="1907" fill="#d81e06"></path><path d="M524.791 923.207A22.996 22.996 0 0 0 512 919.318c-224.918 0-407.267-182.247-407.267-407.165S287.083 104.887 512 104.887c221.132 0 401.127 176.311 407.062 396.113-0.92 3.581-1.33 7.265-1.33 11.051 0 25.48 20.568 46.048 46.048 46.048s46.048-20.568 46.048-46.048c0-3.479-0.41-6.856-1.126-10.13-5.423-271.784-227.374-490.563-500.488-490.563-276.491 0-500.59 224.1-500.59 500.59s224.099 500.591 500.59 500.591v-0.102c2.967 0 5.935-0.512 8.595-1.535 21.08-4.298 36.839-22.82 36.839-45.127 0-19.238-11.973-35.815-28.857-42.568z" p-id="1908" fill="#d81e06"></path></svg>