<?xml version="1.0" standalone="no"?><!DOCTYPE svg PUBLIC "-//W3C//DTD SVG 1.1//EN" "http://www.w3.org/Graphics/SVG/1.1/DTD/svg11.dtd"><svg t="1611716652162" class="icon" viewBox="0 0 1024 1024" version="1.1" xmlns="http://www.w3.org/2000/svg" p-id="6555" xmlns:xlink="http://www.w3.org/1999/xlink" width="48" height="48"><defs><style type="text/css"></style></defs><path d="M512 316.586667l143.786667 160.426666a64 64 0 0 0 47.573333 21.333334 64 64 0 0 0 30.933333-7.68l71.893334-39.893334-48 239.573334H265.813333l-47.786666-238.933334L287.146667 490.666667a64 64 0 0 0 31.146666 8.106666 64 64 0 0 0 47.573334-21.333333L512 316.586667m0-95.573334l-193.493333 213.333334-190.506667-106.666667L203.093333 704a64 64 0 0 0 62.72 51.413333h509.866667a42.666667 42.666667 0 0 0 42.666667-34.346666L896 327.68l-192 106.666667-192-213.333334zM778.666667 861.013333h-533.333334a32 32 0 0 1 0-64h533.333334a32 32 0 0 1 0 64z" fill="#00c090" p-id="6556"></path><path d="M512 216.32m-53.333333 0a53.333333 53.333333 0 1 0 106.666666 0 53.333333 53.333333 0 1 0-106.666666 0Z" fill="#00c090" p-id="6557"></path><path d="M885.333333 334.293333m-53.333333 0a53.333333 53.333333 0 1 0 106.666667 0 53.333333 53.333333 0 1 0-106.666667 0Z" fill="#00c090" p-id="6558"></path><path d="M138.666667 334.293333m-53.333334 0a53.333333 53.333333 0 1 0 106.666667 0 53.333333 53.333333 0 1 0-106.666667 0Z" fill="#00c090" p-id="6559"></path></svg>