<?xml version="1.0" standalone="no"?><!DOCTYPE svg PUBLIC "-//W3C//DTD SVG 1.1//EN" "http://www.w3.org/Graphics/SVG/1.1/DTD/svg11.dtd"><svg t="1620898847487" class="icon" viewBox="0 0 1024 1024" version="1.1" xmlns="http://www.w3.org/2000/svg" p-id="9147" xmlns:xlink="http://www.w3.org/1999/xlink" width="512" height="512"><defs><style type="text/css"></style></defs><path d="M282.57 503.79H607.6c16.41 0 29.73-13.31 29.73-29.73s-13.32-29.73-29.73-29.73H282.57c-16.41 0-29.73 13.31-29.73 29.73s13.31 29.73 29.73 29.73z" p-id="9148"></path><path d="M808.25 505.23V242.9c0-18.3-6.99-35.65-19.68-48.85L691.95 93.63c-13.2-13.75-31.7-21.64-50.79-21.64H171.28c-60.09 0-109 48.9-109 109v655.89c0 60.09 48.91 109 109 109h451.68c32.75 16.84 69.48 26.61 108.08 26.61 135.32 0 241.33-105.44 241.33-240.05 0-105.47-68.85-195.09-164.12-227.21z m-62.54-269.97c0.99 1.04 1.76 2.23 2.28 3.52h-92.68c-1.78 0-5.92 0-5.92-11.81v-91.83l96.32 100.12zM121.73 836.89v-655.9c0-27.32 22.22-49.55 49.55-49.55h418.65v95.53c0 41.96 26.88 71.26 65.38 71.26h93.48v195.05c-5.88-0.43-11.76-0.89-17.75-0.89-107.91 0-196.98 67.15-228.72 162.57-3.16-1.14-6.52-1.87-10.07-1.87H282.57c-16.41 0-29.73 13.31-29.73 29.73s13.32 29.73 29.73 29.73H490.7c-0.52 6.57-0.98 13.17-0.98 19.9 0 58.02 22.07 111.95 58.02 153.98H171.28c-27.33 0-49.55-22.22-49.55-49.54z m609.31 76.15c-98.59 0-181.87-82.7-181.87-180.59 0-101.27 79.89-180.59 181.87-180.59 12.04 0 23.78 1.23 35.17 3.46 3.26 1.49 6.84 2.35 10.61 2.56 78.16 20.23 136.09 90.72 136.09 174.57 0 101.26-79.89 180.59-181.87 180.59z" p-id="9149"></path><path d="M819.84 772.07H715.07c-16.41 0-29.73-13.32-29.73-29.73s13.32-29.73 29.73-29.73h104.76c16.41 0 29.73 13.32 29.73 29.73 0.01 16.41-13.31 29.73-29.72 29.73z" fill="#FDB20E" p-id="9150"></path><path d="M715.07 772.07c-16.41 0-29.73-13.32-29.73-29.73V637.58c0-16.42 13.32-29.73 29.73-29.73s29.73 13.31 29.73 29.73v104.76c0 16.41-13.31 29.73-29.73 29.73z" fill="#FDB20E" p-id="9151"></path></svg>