<?xml version="1.0" standalone="no"?><!DOCTYPE svg PUBLIC "-//W3C//DTD SVG 1.1//EN" "http://www.w3.org/Graphics/SVG/1.1/DTD/svg11.dtd"><svg t="1627459647501" class="icon" viewBox="0 0 1024 1024" version="1.1" xmlns="http://www.w3.org/2000/svg" p-id="6001" xmlns:xlink="http://www.w3.org/1999/xlink" width="512" height="512"><defs><style type="text/css">@font-face { font-family: feedback-iconfont; src: url("//at.alicdn.com/t/font_1031158_1uhr8ri0pk5.eot?#iefix") format("embedded-opentype"), url("//at.alicdn.com/t/font_1031158_1uhr8ri0pk5.woff2") format("woff2"), url("//at.alicdn.com/t/font_1031158_1uhr8ri0pk5.woff") format("woff"), url("//at.alicdn.com/t/font_1031158_1uhr8ri0pk5.ttf") format("truetype"), url("//at.alicdn.com/t/font_1031158_1uhr8ri0pk5.svg#iconfont") format("svg"); }
</style></defs><path d="M901.3 586.8c-37.5-37.5-87.3-58.1-140.3-58.1-53 0-102.8 20.6-140.3 58.1-77.3 77.6-77.3 203.1 0 280.6 37.5 37.5 87.3 58.1 140.3 58.1 53 0 102.8-20.6 140.3-58.1 77.4-77.3 77.4-203.2 0-280.6z m-32.5 248.1c-28.8 28.8-67.1 44.6-107.8 44.6s-79-15.9-107.8-44.6c-59.4-59.6-59.4-156.1 0-215.7 28.8-28.8 67-44.6 107.8-44.6s79.1 15.9 107.8 44.6c59.5 59.6 59.5 156.1 0 215.7z" p-id="6002"></path><path d="M839.2 772.9c5.8 5.8 8.1 14.3 6 22.2-2.1 7.9-8.3 14.1-16.2 16.3-7.9 2.1-16.4-0.1-22.2-5.9L761 759.7l-45.8 45.8c-9 8.7-23.4 8.6-32.2-0.3-8.9-8.9-9-23.2-0.3-32.2l45.8-45.8-45.8-45.8c-5.8-5.8-8.1-14.3-5.9-22.2 2.1-7.9 8.3-14.1 16.3-16.3 7.9-2.1 16.4 0.1 22.2 5.9l45.8 45.8 45.8-45.8c4.3-4.3 10.2-6.7 16.3-6.7 6.1 0 11.9 2.4 16.3 6.7 4.3 4.3 6.7 10.2 6.7 16.3 0 6.1-2.5 11.9-6.8 16.2l-45.8 45.8 45.6 45.8zM518.1 723.4c0-13.7 1.2-27.2 3.6-40.2H119.5V576.7c0-14.6 12-26.6 26.6-26.6h199.6c14.6 0 26.6-12 26.6-26.6 0-54.6-21.3-107.8-59.9-151.7-21.3-24-33.3-55.9-33.3-87.8 0-35.9 14.6-70.5 41.3-95.8 25.3-25.3 59.9-38.6 97.2-37.3 69.2 2.7 126.4 61.2 127.8 130.4 0 34.6-12 67.9-35.9 93.2-37.3 39.9-57.2 93.2-57.2 149 0 14.6 12 26.6 26.6 26.6H599c29.4-24.7 65.2-42 104.5-49.2-7.9-2.6-16.3-4.1-25-4.1H508.1c5.3-33.3 18.6-62.5 41.3-86.5 31.9-35.9 50.6-82.5 49.2-130.4-1.3-95.8-82.5-178.3-178.3-182.3-51.9-1.3-99.8 16-137.1 51.9S226 233.3 226 283.9c0 45.2 16 89.2 46.6 123.8 22.6 26.6 38.6 57.2 43.9 89.2H146.1c-43.9 0-79.8 35.9-79.8 79.8v133.1c0 14.6 12 26.6 26.6 26.6h425.6c-0.3-4.3-0.4-8.6-0.4-13zM528.1 789.7H92.9c-14.6 0-26.6 12-26.6 26.6 0 14.6 12 26.6 26.6 26.6h462c-11.2-16.3-20.3-34.2-26.8-53.2z" p-id="6003"></path></svg>