<?xml version="1.0" standalone="no"?><!DOCTYPE svg PUBLIC "-//W3C//DTD SVG 1.1//EN" "http://www.w3.org/Graphics/SVG/1.1/DTD/svg11.dtd"><svg t="1630461753376" class="icon" viewBox="0 0 1024 1024" version="1.1" xmlns="http://www.w3.org/2000/svg" p-id="1934" xmlns:xlink="http://www.w3.org/1999/xlink" width="16" height="16"><defs><style type="text/css"></style></defs><path d="M995.446 194.205l-30.808-3.725C816.114 172.457 630.759 86.277 531.752 14.256L512.147 0l-20.235 13.304c-2.157 1.4-219.048 142.698-433.054 174.487l-30.36 4.523 0.504 30.683c1.19 72.581 10.867 150.12 28.007 224.228 18.99 82.203 46.577 159.56 81.993 229.915 39.602 78.645 88.224 146.872 144.687 202.76 63.101 62.542 135.837 109.51 216.12 139.605l12.002 4.495 12.071-4.313c73.982-26.481 143.007-70.803 205.128-131.776 56.015-55.02 105.547-122.491 147.04-200.548 76.167-143.26 119.676-311.725 119.382-462.21zM333.585 760.687l105.294-262.698H333.585l288.604-275.3-49.924 198.853h120.937z"  p-id="1935"></path></svg>