<?xml version="1.0" standalone="no"?><!DOCTYPE svg PUBLIC "-//W3C//DTD SVG 1.1//EN" "http://www.w3.org/Graphics/SVG/1.1/DTD/svg11.dtd"><svg t="1608779305840" class="icon" viewBox="0 0 1024 1024" version="1.1" xmlns="http://www.w3.org/2000/svg" p-id="14548" xmlns:xlink="http://www.w3.org/1999/xlink" width="128" height="128"><defs><style type="text/css"></style></defs><path d="M925.724444 42.666667h-696.888888a27.306667 27.306667 0 0 0-27.306667 27.306666v267.235556H71.111111v172.515555h130.417778v256a27.164444 27.164444 0 0 0 27.164444 27.306667h314.311111v170.666667a27.306667 27.306667 0 0 0 27.306667 27.306666l355.555556-191.431111a27.164444 27.164444 0 0 0 27.022222-26.737777V69.404444A27.164444 27.164444 0 0 0 925.724444 42.666667z m-355.555555 198.257777a27.164444 27.164444 0 0 0-27.306667 27.164445v477.582222H249.315556V509.866667h87.182222v65.28L513.422222 423.68 336.497778 272.071111v65.28h-87.182222V89.884444h600.177777z m0 0"  p-id="14549"></path></svg>