<?xml version="1.0" standalone="no"?><!DOCTYPE svg PUBLIC "-//W3C//DTD SVG 1.1//EN" "http://www.w3.org/Graphics/SVG/1.1/DTD/svg11.dtd"><svg t="1607396011317" class="icon" viewBox="0 0 1024 1024" version="1.1" xmlns="http://www.w3.org/2000/svg" p-id="14336" xmlns:xlink="http://www.w3.org/1999/xlink" width="128" height="128"><defs><style type="text/css"></style></defs><path d="M1000.9 441.2L843 306v58.2h-52.4V133.3c0-13.5-10.9-24.4-24.4-24.4H144.4c-13.5 0-24.4 10.9-24.4 24.4v628c0 13.5 10.9 24.4 24.4 24.4l317 170.7c13.5 0 24.4-10.9 24.4-24.4V779.5h280.4c13.5 0 24.4-10.9 24.4-24.4v-237H843v58.2l157.9-135.1z m-253-77H606.2v153.9h141.7v218.7H485.8V310.1c0-13.5-10.9-24.4-24.4-24.4L212.3 151.6h535.6v212.6z" p-id="14337"></path></svg>