<?xml version="1.0" standalone="no"?><!DOCTYPE svg PUBLIC "-//W3C//DTD SVG 1.1//EN" "http://www.w3.org/Graphics/SVG/1.1/DTD/svg11.dtd"><svg t="1608778663988" class="icon" viewBox="0 0 1024 1024" version="1.1" xmlns="http://www.w3.org/2000/svg" p-id="13362" xmlns:xlink="http://www.w3.org/1999/xlink" width="128" height="128"><defs><style type="text/css"></style></defs><path d="M967.111111 1024h-199.111111V341.333333c0-31.288889 25.6-56.888889 56.860444-56.888889h142.222223c31.288889 0 56.917333 25.571556 56.917333 56.888889v625.777778a57.144889 57.144889 0 0 1-56.888889 56.888889z m-341.333333 0H113.777778a114.090667 114.090667 0 0 1-113.777778-113.777778V113.777778a114.090667 114.090667 0 0 1 113.777778-113.777778h512a114.090667 114.090667 0 0 1 113.777778 113.777778v796.444444a114.090667 114.090667 0 0 1-113.777778 113.777778z m-85.333334-654.222222H199.111111c-17.066667 0-28.444444 11.377778-28.444444 28.444444s11.377778 28.444444 28.444444 28.444445h341.333333c17.066667 0 28.444444-11.377778 28.444445-28.444445s-11.377778-28.444444-28.444445-28.444444z m0 227.555555H199.111111c-17.066667 0-28.444444 11.377778-28.444444 28.444445s11.377778 28.444444 28.444444 28.444444h341.333333c17.066667 0 28.444444-11.377778 28.444445-28.444444s-11.377778-28.444444-28.444445-28.444445z" p-id="13363"></path></svg>