<?xml version="1.0" standalone="no"?><!DOCTYPE svg PUBLIC "-//W3C//DTD SVG 1.1//EN" "http://www.w3.org/Graphics/SVG/1.1/DTD/svg11.dtd"><svg t="1619494021035" class="icon" viewBox="0 0 1024 1024" version="1.1" xmlns="http://www.w3.org/2000/svg" p-id="3485" xmlns:xlink="http://www.w3.org/1999/xlink" width="128" height="128"><defs><style type="text/css"></style></defs><path d="M813.579 626.948V466.007c0-124.327-76.749-230.901-185.901-275.938-0.018-63.371-52.116-114.906-116.176-114.906-64.042 0-116.159 51.535-116.177 114.906-109.152 45.037-185.901 151.61-185.901 275.938v160.941l-69.706 91.961v45.999c0 25.286 20.912 45.98 46.471 45.98H372.09c0 76.06 62.554 137.941 139.412 137.941 76.876 0 139.43-61.882 139.43-137.941h185.883c25.559 0 46.471-20.694 46.471-45.98v-45.999l-69.707-91.961zM509.396 144.161a40.373 40.373 0 0 1 2.088 0 46.47 46.47 0 0 1 40.662 25.74c-13.288-1.779-26.849-2.777-40.644-2.777-14.577 0-28.881 1.071-42.895 3.05 7.37-15.049 22.745-25.613 40.789-26.013z m2.105 735.69c-38.502 0-69.706-30.859-69.706-68.962h139.412c0 38.102-31.204 68.962-69.706 68.962zM209.424 741.908l55.765-73.572c9.04-11.926 13.941-26.467 13.941-41.388V466.007c0-126.778 104.25-229.903 232.372-229.903 128.139 0 232.372 103.125 232.372 229.903v160.941c0 14.921 4.901 29.462 13.941 41.388l55.765 73.572H209.424z" p-id="3486"></path></svg>