<?xml version="1.0" standalone="no"?><!DOCTYPE svg PUBLIC "-//W3C//DTD SVG 1.1//EN" "http://www.w3.org/Graphics/SVG/1.1/DTD/svg11.dtd"><svg t="1612146080024" class="icon" viewBox="0 0 1024 1024" version="1.1" xmlns="http://www.w3.org/2000/svg" p-id="13763" xmlns:xlink="http://www.w3.org/1999/xlink" width="128" height="128"><defs><style type="text/css"></style></defs><path d="M510.788392 1024h-1.143952c-41.182253 0-80.566869-23.696138-116.846473-69.290776-32.684328-34.645388-62.427067-62.100223-90.862432-88.901372a1047.369295 1047.369295 0 0 1-134.005745-143.811044C101.090339 633.749122 70.693914 544.194063 73.145238 448.102139 70.367071 255.591446 186.233014 85.63294 361.257591 25.984041c193.000958-65.368656 387.145867-4.739228 506.607086 159.009256a448.592403 448.592403 0 0 1-0.98053 521.641877c-68.473667 91.67954-115.5391 135.47654-201.008618 214.736036l-42.653048 39.548037c-34.972231 41.83594-72.72263 63.080753-112.434089 63.080753z m5.392914-971.541653a430.779445 430.779445 0 0 0-137.274178 23.696138C224.637099 128.285988 123.315682 277.816789 125.767007 448.428982c-2.124481 84.65241 25.493776 163.421641 84.325566 241.373763a1000.957549 1000.957549 0 0 0 127.959145 137.110756c27.454836 25.820619 58.831791 55.073093 94.457708 92.660071 28.108522 34.318545 53.112033 50.987552 77.135014 51.314395 23.696138 0 49.026492-15.198213 73.049474-45.594638l2.451324-2.614746L630.249611 882.476859c85.796361-79.586339 129.103096-119.624641 194.635174-207.545483a394.172997 394.172997 0 0 0 0-457.580594C747.586349 109.329078 637.276742 52.458347 516.181306 52.458347z m-4.248963 588.317906a208.035748 208.035748 0 1 1 205.747846-208.526014 207.055219 207.055219 0 0 1-205.747846 208.199171z m0-363.122886a155.087137 155.087137 0 1 0 153.289499 155.087137A154.270029 154.270029 0 0 0 511.932343 277.816789z" p-id="13764"></path></svg>