<?xml version="1.0" standalone="no"?><!DOCTYPE svg PUBLIC "-//W3C//DTD SVG 1.1//EN" "http://www.w3.org/Graphics/SVG/1.1/DTD/svg11.dtd"><svg t="1612151096617" class="icon" viewBox="0 0 1024 1024" version="1.1" xmlns="http://www.w3.org/2000/svg" p-id="43455" xmlns:xlink="http://www.w3.org/1999/xlink" width="128" height="128"><defs><style type="text/css"></style></defs><path d="M800.913982 683.675528l72.67079-72.670789a511.766123 511.766123 0 0 0-197.029958-122.312104 281.471368 281.471368 0 1 0-365.401011 13.30592A511.766123 511.766123 0 0 0 0 972.823388a51.176612 51.176612 0 0 0 102.353225 0 409.412898 409.412898 0 0 1 698.560757-289.14786zM486.177817 102.820979A179.118143 179.118143 0 1 1 307.059674 281.939122 179.118143 179.118143 0 0 1 486.177817 102.820979z" p-id="43456"></path><path d="M972.355633 665.763714a51.176612 51.176612 0 0 0-51.176612 51.176612v102.353225h-340.324472l18.935347-18.423581a51.176612 51.176612 0 0 0 0-69.600192 51.176612 51.176612 0 0 0-70.111959 0l-105.423821 102.353224a51.176612 51.176612 0 0 0 0 69.600193l105.423821 102.353225a51.176612 51.176612 0 0 0 70.111959 0 51.176612 51.176612 0 0 0 0-69.600193l-18.935347-14.329452H972.355633a51.176612 51.176612 0 0 0 51.176613-51.176612v-153.529837a51.176612 51.176612 0 0 0-51.176613-51.176612z" p-id="43457"></path></svg>