<?xml version="1.0" standalone="no"?><!DOCTYPE svg PUBLIC "-//W3C//DTD SVG 1.1//EN" "http://www.w3.org/Graphics/SVG/1.1/DTD/svg11.dtd"><svg t="1607564854766" class="icon" viewBox="0 0 1024 1024" version="1.1" xmlns="http://www.w3.org/2000/svg" p-id="5301" xmlns:xlink="http://www.w3.org/1999/xlink" width="128" height="128"><defs><style type="text/css"></style></defs><path d="M730.47 778.547a30.72 30.72 0 0 1-30.72-30.72v-92.16a30.72 30.72 0 0 1 61.44 0v92.16a30.72 30.72 0 0 1-30.72 30.72z" p-id="5302"></path><path d="M822.58 778.547h-92.16a30.72 30.72 0 0 1 0-61.44h92.16a30.72 30.72 0 1 1 0 61.44z" p-id="5303"></path><path d="M770.355 171.162h-79.667a92.16 92.16 0 0 0-91.648-82.484H436.531a92.16 92.16 0 0 0-91.648 82.484h-79.667a92.16 92.16 0 0 0-92.16 92.16v579.84a92.16 92.16 0 0 0 92.16 92.16H666.88a205.363 205.363 0 1 1 195.635-352.41v-319.59a92.16 92.16 0 0 0-92.16-92.16zM561.51 583.168H304.742a30.72 30.72 0 0 1 0-61.44H561.51a30.72 30.72 0 0 1 0 61.44z m0-113.46H304.742a30.72 30.72 0 1 1 0-61.44H561.51a30.72 30.72 0 0 1 0 61.44z m138.24-113.51H304.742a30.72 30.72 0 0 1 0-61.44H699.75a30.72 30.72 0 1 1 0 61.44z" p-id="5304"></path><path d="M860.518 608.82a194.073 194.073 0 0 0-11.212-10.24 184.32 184.32 0 0 0-48.23-29.39q-3.482-1.433-7.066-2.764a184.832 184.832 0 0 0-203.674 294.092c4.045 4.66 8.243 9.114 12.698 13.364a185.805 185.805 0 0 0 70.195 41.984 176.998 176.998 0 0 0 24.013 5.99 179.917 179.917 0 0 0 33.228 3.072 184.73 184.73 0 0 0 130.048-316.109zM730.47 883.967a143.923 143.923 0 1 1 143.924-143.872A144.077 144.077 0 0 1 730.47 883.968z" p-id="5305"></path></svg>