<?xml version="1.0" standalone="no"?><!DOCTYPE svg PUBLIC "-//W3C//DTD SVG 1.1//EN" "http://www.w3.org/Graphics/SVG/1.1/DTD/svg11.dtd"><svg t="1629773134877" class="icon" viewBox="0 0 1024 1024" version="1.1" xmlns="http://www.w3.org/2000/svg" p-id="2085" xmlns:xlink="http://www.w3.org/1999/xlink" width="512" height="512"><defs><style type="text/css"></style></defs><path d="M512 0a42.658739 42.658739 0 0 1 42.658739 42.658739l0.042659 45.303581a341.355231 341.355231 0 0 1 298.397881 328.003046L853.269914 426.587393v298.611174l85.317479 127.976218v42.658739a42.658739 42.658739 0 0 1-37.667667 42.360128L895.928653 938.492264h-263.24708a128.018876 128.018876 0 0 1-241.363146 0H128.071347a42.658739 42.658739 0 0 1-42.360128-37.667667L85.412607 895.833524v-42.658739l85.317479-127.976218v-298.611174a341.312573 341.312573 0 0 1 298.611175-338.625073V42.658739a42.658739 42.658739 0 0 1 42.658739-42.658739z m0 170.634957a255.952436 255.952436 0 0 0-255.781801 246.354219L256.047564 426.587393v298.611174a85.317479 85.317479 0 0 1-10.579367 41.165684l-3.753969 6.142858L187.921558 853.174785h203.396869v-0.085317h241.363146V853.174785h203.35421l-53.750011-80.625017a85.317479 85.317479 0 0 1-14.034725-40.141874L767.952436 725.198567v-298.611174a255.952436 255.952436 0 0 0-255.952436-255.952436z" p-id="2086"></path></svg>