<?xml version="1.0" standalone="no"?><!DOCTYPE svg PUBLIC "-//W3C//DTD SVG 1.1//EN" "http://www.w3.org/Graphics/SVG/1.1/DTD/svg11.dtd"><svg t="1611830846182" class="icon" viewBox="0 0 1024 1024" version="1.1" xmlns="http://www.w3.org/2000/svg" p-id="29630" xmlns:xlink="http://www.w3.org/1999/xlink" width="128" height="128"><defs><style type="text/css"></style></defs><path d="M511.8 461.83c222 0 402.23-56.12 402.23-125.75V235.72c0-69.63-180.22-125.75-402.23-125.75-222 0-402.23 56.11-402.23 125.75v100.35c0 69.23 179.81 125.76 402.23 125.76z" p-id="29631"></path><path d="M511.8 687.92c222 0 402.23-56.11 402.23-125.75V411.44c0 69.63-180.22 125.75-402.23 125.75-222 0-402.23-56.11-402.23-125.75v150.73c0 69.23 179.81 125.75 402.23 125.75z" p-id="29632"></path><path d="M511.8 763.29c-222 0-401.82-56.12-401.82-125.75v150.73c0 69.22 179.81 125.75 402.23 125.75 222 0 402.23-56.11 402.23-125.75V637.55c-0.42 69.62-180.64 125.74-402.64 125.74z" p-id="29633"></path></svg>